<svg width="15" height="14" viewBox="0 0 15 14" xmlns="http://www.w3.org/2000/svg"><path d="M14.118 2.052v8.007c0 .324-.115.601-.346.832-.23.231-.507.346-.831.346h-4c0 .182.039.372.118.57.078.199.157.373.235.523.078.15.118.256.118.32 0 .128-.047.238-.14.331-.093.093-.203.14-.331.14h-3.765c-.127 0-.238-.047-.331-.14-.093-.093-.14-.204-.14-.331 0-.069.039-.177.118-.324.078-.147.157-.319.235-.515.078-.196.118-.388.118-.574h-4c-.324 0-.6-.115-.831-.346-.23-.231-.346-.508-.346-.832v-8.007c0-.324.115-.601.346-.832.23-.231.507-.346.831-.346h11.765c.324 0 .6.115.831.346.23.231.346.508.346.832zm-.882 7.289v-7.311c0-.076-.024-.142-.071-.198-.047-.056-.103-.083-.167-.083h-11.878c-.064 0-.12.028-.167.083-.047.056-.071.122-.071.198v7.311c0 .076.024.142.071.198.047.056.103.083.167.083h11.878c.064 0 .12-.028.167-.083.047-.056.071-.122.071-.198z" fill="#4C4C4C"/></svg>
