<svg width="16" height="16" viewBox="0 0 16 16" xmlns="http://www.w3.org/2000/svg"><path d="M4.805 12.237h.372c0 .186-.039.378-.118.574-.078.196-.157.368-.235.515-.078.147-.118.255-.118.324 0 .128.047.238.14.331.093.093.203.14.331.14h3.765c.127 0 .238-.047.331-.14.093-.093.14-.204.14-.331 0-.064-.039-.171-.118-.32-.078-.15-.157-.324-.235-.523-.078-.199-.118-.389-.118-.57h4c.324 0 .6-.115.831-.346.23-.231.346-.508.346-.832v-8.007l-.006-.122 1.046-1.046-1.101-1.101-13.333 13.333 1.101 1.101 2.98-2.98zm8.431-8.431v6.534c0 .076-.024.142-.071.198-.047.056-.103.083-.167.083h-6.578l6.816-6.816zm-12.191 8.424c-.268-.027-.501-.141-.699-.339-.23-.231-.346-.508-.346-.832v-8.007c0-.324.115-.601.346-.832.23-.231.507-.346.831-.346h10.224l-.875.875h-9.406c-.064 0-.12.028-.167.083-.047.056-.071.122-.071.198v7.311c0 .076.024.142.071.198.047.056.103.083.167.083h1.533l-1.608 1.608z" fill="#aaa"/></svg>
