<?xml version="1.0" encoding="UTF-8" standalone="no"?>
<svg width="634px" height="443px" viewBox="0 0 634 443" version="1.1" xmlns="http://www.w3.org/2000/svg" xmlns:xlink="http://www.w3.org/1999/xlink" xmlns:sketch="http://www.bohemiancoding.com/sketch/ns">
    <!-- Generator: Sketch 3.4.4 (17249) - http://www.bohemiancoding.com/sketch -->
    <title>BrowserWindow_Minimal</title>
    <desc>Created with Sketch.</desc>
    <defs>
        <path id="path-1" d="M20.2651771,64.3994383 L21.2816946,65.4105064 C21.3452845,65.4724441 21.4171688,65.5212964 21.4955042,65.5614251 L26.6822317,70.5670406 C27.2886402,71.1619918 28.1438788,71.2893567 28.5936164,70.8479413 L29.6110555,69.8264049 C30.0598714,69.3858619 29.9299268,68.5440322 29.3244399,67.9473363 L27.2130695,65.9094977 L32.9048302,65.9094977 C33.5748286,65.9094977 34.1176471,65.3956762 34.1176471,64.7623411 L34.1176471,62.4680279 C34.1176471,61.8346928 33.5748286,61.319999 32.9048302,61.319999 L27.1531659,61.319999 L29.4184425,59.139093 C30.0266941,58.5476312 30.153874,57.7110357 29.7059796,57.2748545 L28.6894621,56.2620417 C28.2406461,55.8232434 27.3844859,55.9479912 26.7771558,56.5429424 L21.5507998,61.5729841 C21.4512677,61.6157299 21.36003,61.6741781 21.2816946,61.7500737 L20.2660987,62.7724824 C20.0559754,62.9792323 19.9739536,63.2732184 20.0071309,63.5890136 C19.9739536,63.9021918 20.0559754,64.1944332 20.2651771,64.3994383"></path>
        <filter x="-50%" y="-50%" width="200%" height="200%" filterUnits="objectBoundingBox" id="filter-2">
            <feOffset dx="0" dy="0.5" in="SourceAlpha" result="shadowOffsetOuter1"></feOffset>
            <feGaussianBlur stdDeviation="0" in="shadowOffsetOuter1" result="shadowBlurOuter1"></feGaussianBlur>
            <feColorMatrix values="0 0 0 0 1   0 0 0 0 1   0 0 0 0 1  0 0 0 0.35 0" in="shadowBlurOuter1" type="matrix" result="shadowMatrixOuter1"></feColorMatrix>
            <feMerge>
                <feMergeNode in="shadowMatrixOuter1"></feMergeNode>
                <feMergeNode in="SourceGraphic"></feMergeNode>
            </feMerge>
        </filter>
        <path id="path-3" d="M371,62.9995 L365,62.9995 L367.436,60.5647029 C366.877,60.1937339 366.221,59.9597534 365.5,59.9597534 C363.545,59.9597534 361.96,61.5446213 361.96,63.4994584 C361.96,65.4552954 363.545,67.0401633 365.5,67.0401633 C366.541,67.0401633 367.468,66.5832014 368.115,65.868261 L369.807,66.8821765 C368.8,68.1620698 367.255,69 365.5,69 C362.463,69 360,66.5372052 360,63.4994584 C360,60.4627114 362.463,58.0009166 365.5,58.0009166 C366.764,58.0009166 367.921,58.4338805 368.849,59.1508208 L371,57 L371,62.9995"></path>
        <path d="M598.499719,60 L611.49996,60 C612.328144,60 613,59.3278408 613,58.5 C613.000321,57.6718382 612.328144,57 611.500281,57 L598.499719,57 C597.671856,57 597,57.6718382 597,58.499679 C597,59.3278408 597.671856,60 598.499719,60 L598.499719,60 Z M611.500281,62 L598.499719,62 C597.671856,62 597,62.6718382 597,63.5 C597,64.3281618 597.671856,65 598.499719,65 L611.49996,65 C612.328144,65 613,64.3281618 613,63.5 C613.000321,62.6718382 612.328144,62 611.500281,62 L611.500281,62 Z M611.500281,67 L598.499719,67 C597.671856,67 597,67.6718382 597,68.500321 C597,69.3284828 597.671856,70 598.499719,70 L611.49996,70 C612.328144,70 613,69.3281618 613,68.500321 C613.000321,67.6718382 612.328144,67 611.500281,67 L611.500281,67 Z" id="path-4"></path>
        <filter x="-50%" y="-50%" width="200%" height="200%" filterUnits="objectBoundingBox" id="filter-5">
            <feOffset dx="0" dy="2" in="SourceAlpha" result="shadowOffsetOuter1"></feOffset>
            <feGaussianBlur stdDeviation="2" in="shadowOffsetOuter1" result="shadowBlurOuter1"></feGaussianBlur>
            <feColorMatrix values="0 0 0 0 0   0 0 0 0 0   0 0 0 0 0  0 0 0 0.28 0" in="shadowBlurOuter1" type="matrix" result="shadowMatrixOuter1"></feColorMatrix>
            <feMerge>
                <feMergeNode in="shadowMatrixOuter1"></feMergeNode>
                <feMergeNode in="SourceGraphic"></feMergeNode>
            </feMerge>
        </filter>
    </defs>
    <g id="RTL" stroke="none" stroke-width="1" fill="none" fill-rule="evenodd" sketch:type="MSPage">
        <g id="BrowserWindow_Minimal" sketch:type="MSLayerGroup">
            <g id="Browser-Window-Minimal" transform="translate(317.000000, 221.500000) scale(-1, 1) translate(-317.000000, -221.500000) ">
                <rect id="Rectangle-109" fill="#6D889D" sketch:type="MSShapeGroup" x="0" y="0" width="634" height="443"></rect>
                <rect id="Rectangle-109" fill="#E9EDF0" sketch:type="MSShapeGroup" x="4" y="89" width="626" height="350"></rect>
                <rect id="Rectangle-109" fill="#E9EDF0" sketch:type="MSShapeGroup" x="4" y="41" width="626" height="44"></rect>
                <path d="M577.5,41.5 L577.5,84.5" id="Line" stroke="#AEAEAE" stroke-linecap="square" sketch:type="MSShapeGroup"></path>
                <rect id="Rectangle-109" fill="#FFFFFF" sketch:type="MSShapeGroup" x="39" y="50" width="342" height="26"></rect>
                <circle id="Oval-37" fill="#6D889D" sketch:type="MSShapeGroup" cx="28" cy="63" r="17"></circle>
                <rect id="Rectangle-109-Copy" fill="#FFFFFF" sketch:type="MSShapeGroup" x="385" y="50" width="120" height="26"></rect>
                <g id="back-button-glyph">
                    <use fill="none" sketch:type="MSShapeGroup" xlink:href="#path-1"></use>
                    <use fill="none" xlink:href="#path-1"></use>
                    <use fill="#FFFFFF" fill-rule="evenodd" xlink:href="#path-1"></use>
                    <use fill="none" xlink:href="#path-1"></use>
                </g>
                <g id="reload" filter="url(#filter-2)">
                    <use fill="none" sketch:type="MSShapeGroup" xlink:href="#path-3"></use>
                    <use fill="none" xlink:href="#path-3"></use>
                    <use fill="#6D889D" fill-rule="evenodd" xlink:href="#path-3"></use>
                    <use fill="none" xlink:href="#path-3"></use>
                </g>
                <path d="M338,60 L348,60 L343.000496,67 L338,60" id="dropdown" fill="#6D889D" sketch:type="MSShapeGroup"></path>
                <path d="M491.615385,62.6538462 C491.615385,61.8385376 491.325624,61.1411287 490.746094,60.5615986 C490.166564,59.9820684 489.469155,59.6923077 488.653846,59.6923077 C487.838538,59.6923077 487.141129,59.9820684 486.561599,60.5615986 C485.982068,61.1411287 485.692308,61.8385376 485.692308,62.6538462 C485.692308,63.4691547 485.982068,64.1665636 486.561599,64.7460938 C487.141129,65.3256239 487.838538,65.6153846 488.653846,65.6153846 C489.469155,65.6153846 490.166564,65.3256239 490.746094,64.7460938 C491.325624,64.1665636 491.615385,63.4691547 491.615385,62.6538462 L491.615385,62.6538462 Z M495,68.1538462 C495,68.383014 494.916267,68.5813293 494.748798,68.7487981 C494.581329,68.9162669 494.383014,69 494.153846,69 C493.915864,69 493.717549,68.9162669 493.558894,68.7487981 L491.291466,66.4879808 C490.5026,67.0344579 489.623402,67.3076923 488.653846,67.3076923 C488.023635,67.3076923 487.420976,67.1853979 486.845853,66.9408053 C486.27073,66.6962127 485.774942,66.3656872 485.358474,65.9492188 C484.942005,65.5327503 484.61148,65.036962 484.366887,64.4618389 C484.122294,63.8867159 484,63.2840576 484,62.6538462 C484,62.0236347 484.122294,61.4209764 484.366887,60.8458534 C484.61148,60.2707303 484.942005,59.774942 485.358474,59.3584736 C485.774942,58.9420051 486.27073,58.6114796 486.845853,58.366887 C487.420976,58.1222945 488.023635,58 488.653846,58 C489.284058,58 489.886716,58.1222945 490.461839,58.366887 C491.036962,58.6114796 491.53275,58.9420051 491.949219,59.3584736 C492.365687,59.774942 492.696213,60.2707303 492.940805,60.8458534 C493.185398,61.4209764 493.307692,62.0236347 493.307692,62.6538462 C493.307692,63.6234023 493.034458,64.5026002 492.487981,65.2914663 L494.755409,67.5588942 C494.91847,67.7219559 495,67.9202713 495,68.1538462 L495,68.1538462 Z" id="Type-something" fill="#6D889D" sketch:type="MSShapeGroup"></path>
                <path d="M542.49922,52 C536.149859,52 531,56.5343761 531,62.1254555 C531,64.9091573 532.276825,67.431531 534.340913,69.2617206 C533.982377,70.528603 533.272436,72.247784 531.869711,73.9260906 C532.109701,74.3513629 536.060058,72.8512954 538.844783,71.7291484 C539.993925,72.0664179 541.221059,72.2511344 542.49922,72.2511344 C548.850587,72.2511344 554,67.7174283 554,62.1254555 C554,56.5343761 548.850587,52 542.49922,52 L542.49922,52 Z" id="Fill-14-Copy" fill="#00A9DC" sketch:type="MSShapeGroup" transform="translate(542.500000, 63.000000) scale(-1, 1) translate(-542.500000, -63.000000) "></path>
                <g id="menu-glyph">
                    <use fill="none" sketch:type="MSShapeGroup" xlink:href="#path-4"></use>
                    <use fill="none" xlink:href="#path-4"></use>
                    <use fill="#6D889D" fill-rule="evenodd" xlink:href="#path-4"></use>
                    <use fill="none" xlink:href="#path-4"></use>
                </g>
                <path d="M261.318205,27.6307938 C260.263567,21.9331094 258.715595,13 244.676407,13 L214.878906,13 L75.1920374,13 C61.3633388,13 59.7364331,23.2460886 58.6817947,28.943773 C57.0329631,37.845713 54.1803966,41.4487305 45,41.4487305 C45,41.4487307 45.0000002,47 45,47 C44.9999998,47 274.999996,47 274.999996,47 C274.999996,47 274.999996,41.4487307 275,41.4487305 C265.819603,41.4487305 262.964844,36.5327338 261.318205,27.6307938 Z" id="Tab" fill="#E9EDF0" sketch:type="MSShapeGroup"></path>
            </g>
            <g id="Panel-UI-Copy-2" transform="translate(184.000000, 184.500000) scale(-1, 1) translate(-184.000000, -184.500000) translate(64.000000, 77.000000)" sketch:type="MSShapeGroup">
                <path d="M220.961535,7 L236.799956,7 C238.560248,7 240,8.43477649 240,10.204663 L240,211.795337 C240,213.560697 238.567291,215 236.799956,215 L3.20004443,215 C1.4397523,215 0,213.565224 0,211.795337 L0,10.204663 C0,8.43930316 1.43270869,7 3.20004443,7 L206.238465,7 L213.6,0 L220.961535,7 Z" id="Shape-6-Copy-19" fill="#FFFFFF" filter="url(#filter-5)"></path>
                <rect id="Shape-6-Copy-21" fill="#FAFAFA" x="0" y="65" width="240" height="150" rx="3.2"></rect>
                <rect id="Shape-6-Copy-22" fill="#FFFFFF" x="0" y="185" width="240" height="30" rx="3.2"></rect>
                <path d="M223.666667,201 C223.666667,200.539928 223.503908,200.147137 223.178385,199.821615 C222.852863,199.496092 222.460072,199.333333 222,199.333333 C221.539928,199.333333 221.147137,199.496092 220.821615,199.821615 C220.496092,200.147137 220.333333,200.539928 220.333333,201 C220.333333,201.460072 220.496092,201.852863 220.821615,202.178385 C221.147137,202.503908 221.539928,202.666667 222,202.666667 C222.460072,202.666667 222.852863,202.503908 223.178385,202.178385 C223.503908,201.852863 223.666667,201.460072 223.666667,201 L223.666667,201 Z M227,200.290365 L227,201.735677 C227,201.787761 226.982639,201.837673 226.947917,201.885417 C226.913194,201.93316 226.869792,201.961371 226.817708,201.970052 L225.613281,202.152344 C225.530816,202.38672 225.446181,202.584201 225.359375,202.744792 C225.511285,202.961807 225.743488,203.261283 226.05599,203.643229 C226.099393,203.695313 226.121094,203.749566 226.121094,203.80599 C226.121094,203.862413 226.101563,203.912326 226.0625,203.955729 C225.945312,204.11632 225.73047,204.350693 225.417969,204.658854 C225.105467,204.967015 224.901476,205.121094 224.80599,205.121094 C224.753906,205.121094 224.697483,205.101563 224.636719,205.0625 L223.738281,204.359375 C223.547308,204.459202 223.349827,204.541666 223.145833,204.606771 C223.076389,205.197052 223.013455,205.600693 222.957031,205.817708 C222.926649,205.939237 222.848525,206 222.722656,206 L221.277344,206 C221.21658,206 221.163412,205.981554 221.117839,205.944661 C221.072265,205.907769 221.047309,205.861111 221.042969,205.804688 L220.860677,204.606771 C220.648002,204.537326 220.452692,204.457032 220.27474,204.365885 L219.356771,205.0625 C219.313368,205.101563 219.259115,205.121094 219.19401,205.121094 C219.133246,205.121094 219.078993,205.097222 219.03125,205.049479 C218.484372,204.554685 218.126303,204.190105 217.957031,203.955729 C217.926649,203.912326 217.911458,203.862413 217.911458,203.80599 C217.911458,203.753906 217.928819,203.703993 217.963542,203.65625 C218.028646,203.565104 218.139322,203.420791 218.295573,203.223307 C218.451824,203.025824 218.56901,202.87283 218.647135,202.764323 C218.529947,202.547308 218.440973,202.332466 218.380208,202.119792 L217.188802,201.94401 C217.132378,201.93533 217.086806,201.908203 217.052083,201.86263 C217.017361,201.817057 217,201.766059 217,201.709635 L217,200.264323 C217,200.212239 217.017361,200.162327 217.052083,200.114583 C217.086806,200.06684 217.128038,200.038629 217.175781,200.029948 L218.386719,199.847656 C218.447483,199.648002 218.532118,199.448352 218.640625,199.248698 C218.467013,199.001301 218.23481,198.701825 217.94401,198.35026 C217.900607,198.298177 217.878906,198.246094 217.878906,198.19401 C217.878906,198.150607 217.898437,198.100695 217.9375,198.044271 C218.050348,197.88802 218.264104,197.654732 218.578776,197.344401 C218.893448,197.03407 219.098524,196.878906 219.19401,196.878906 C219.250434,196.878906 219.306857,196.900607 219.363281,196.94401 L220.261719,197.640625 C220.452692,197.540798 220.650173,197.458334 220.854167,197.393229 C220.923611,196.802948 220.986545,196.399307 221.042969,196.182292 C221.073351,196.060763 221.151475,196 221.277344,196 L222.722656,196 C222.78342,196 222.836588,196.018446 222.882161,196.055339 C222.927735,196.092231 222.952691,196.138889 222.957031,196.195312 L223.139323,197.393229 C223.351998,197.462674 223.547308,197.542968 223.72526,197.634115 L224.64974,196.9375 C224.688802,196.898437 224.740885,196.878906 224.80599,196.878906 C224.862413,196.878906 224.916666,196.900607 224.96875,196.94401 C225.528649,197.460506 225.886718,197.829426 226.042969,198.050781 C226.073351,198.085504 226.088542,198.133246 226.088542,198.19401 C226.088542,198.246094 226.071181,198.296007 226.036458,198.34375 C225.971354,198.434896 225.860678,198.579209 225.704427,198.776693 C225.548176,198.974176 225.43099,199.12717 225.352865,199.235677 C225.465712,199.452692 225.554687,199.665364 225.619792,199.873698 L226.811198,200.05599 C226.867622,200.06467 226.913194,200.091797 226.947917,200.13737 C226.982639,200.182943 227,200.233941 227,200.290365 L227,200.290365 Z" id="Type-something-13-Copy-18" fill="#525252"></path>
                <path d="M239.5,64.5 L0.5,64.5" id="Line-Copy-40" stroke="#D0D0D0" stroke-linecap="square"></path>
                <path d="M239.5,185.5 L0.5,185.5" id="Line-Copy-41" stroke="#D0D0D0" stroke-linecap="square"></path>
                <rect id="Rectangle-124-Copy" fill="#D1D1D1" x="34" y="161" width="101" height="10"></rect>
                <rect id="Rectangle-124-Copy-2" fill="#D1D1D1" x="34" y="139" width="121" height="10"></rect>
                <rect id="Rectangle-124-Copy-3" fill="#D1D1D1" x="34" y="118" width="81" height="10"></rect>
                <rect id="Rectangle-124-Copy-4" fill="#D1D1D1" x="34" y="97" width="161" height="10"></rect>
                <rect id="Rectangle-124-Copy-5" fill="#D1D1D1" x="12" y="96" width="12" height="12" rx="100"></rect>
                <rect id="Rectangle-124-Copy-6" fill="#D1D1D1" x="12" y="117" width="12" height="12" rx="100"></rect>
                <rect id="Rectangle-124-Copy-7" fill="#D1D1D1" x="12" y="138" width="12" height="12" rx="100"></rect>
                <rect id="Rectangle-124-Copy-8" fill="#D1D1D1" x="12" y="160" width="12" height="12" rx="100"></rect>
                <g id="Rectangle-53-Copy-23-+-Bitmap-9-Copy-4-+-Share-this-tab-with--Copy-Copy-+-Line-+-Type-something" transform="translate(10.000000, 21.000000)">
                    <g id="Rectangle-53-Copy-23-+-Bitmap-9-Copy-4-+-Share-this-tab-with--Copy-Copy">
                        <rect id="Rectangle-53-Copy-23" fill="#00A9DC" x="0" y="0" width="220" height="34" rx="3.2"></rect>
                        <rect id="Rectangle-124-Copy-4" opacity="0.8" fill="#FFFFFF" x="61.2672811" y="12" width="100" height="10"></rect>
                    </g>
                </g>
                <rect id="Rectangle-124-Copy-4" fill="#BDBDBD" x="10" y="73" width="72" height="10"></rect>
                <g id="Hello-Logo" transform="translate(47.500000, 200.500000) scale(-1, 1) translate(-47.500000, -200.500000) translate(13.000000, 195.000000)">
                    <path d="M45.5261834,4.37274178 C45.5042494,4.42106292 45.4741618,4.46434376 45.4360356,4.50072159 C45.3981391,4.53720898 45.3545007,4.56460192 45.3035126,4.58618755 C45.2518356,4.60591047 45.1980914,4.61642936 45.1419356,4.61642936 C45.0845167,4.61642936 45.0297389,4.60591047 44.9803586,4.58618755 C44.9286816,4.56460192 44.8853876,4.53720898 44.8474911,4.50072159 C44.8090204,4.46434376 44.7792774,4.42106292 44.7580324,4.37274178 C44.7350648,4.32398235 44.7244997,4.27040176 44.7244997,4.21430102 C44.7244997,4.15721414 44.7350648,4.10560584 44.7580324,4.05596984 C44.7792774,4.00699127 44.8090204,3.96403914 44.8474911,3.92799003 C44.8853876,3.89183135 44.9286816,3.86345227 44.9803586,3.84285278 C45.0297389,3.821815 45.0845167,3.81250141 45.1419356,3.81250141 C45.1980914,3.81250141 45.2518356,3.821815 45.3035126,3.84285278 C45.3545007,3.86345227 45.3981391,3.89183135 45.4360356,3.92799003 C45.4741618,3.96403914 45.5042494,4.00699127 45.5261834,4.05596984 C45.5489213,4.10560584 45.5604051,4.15721414 45.5604051,4.21430102 C45.5604051,4.27040176 45.5489213,4.32398235 45.5261834,4.37274178 L45.5261834,4.37274178 Z M45.4518833,4.08204792 C45.432935,4.04106808 45.4092784,4.00600512 45.3785018,3.9754346 C45.3497923,3.94497365 45.3143074,3.9215253 45.2723915,3.90377468 C45.2311647,3.88733891 45.1878708,3.87857317 45.1419356,3.87857317 C45.0951966,3.87857317 45.0504098,3.88733891 45.0107907,3.90377468 C44.9702529,3.9215253 44.934768,3.94497365 44.9043359,3.9754346 C44.8732148,4.00600512 44.8505917,4.04106808 44.8323325,4.08204792 C44.8144178,4.12335647 44.8059198,4.1663086 44.8059198,4.21430102 C44.8059198,4.26141688 44.8144178,4.30502643 44.8323325,4.34534884 C44.8505917,4.38720525 44.8732148,4.42237778 44.9043359,4.45327702 C44.934768,4.48340925 44.9702529,4.50817246 45.0107907,4.52581352 C45.0504098,4.54268757 45.0951966,4.55200117 45.1419356,4.55200117 C45.1878708,4.55200117 45.2311647,4.54268757 45.2723915,4.52581352 C45.3143074,4.50817246 45.3497923,4.48340925 45.3785018,4.45327702 C45.4092784,4.42237778 45.432935,4.38720525 45.4518833,4.34534884 C45.4684199,4.30502643 45.477607,4.26141688 45.477607,4.21430102 C45.477607,4.1663086 45.4684199,4.12335647 45.4518833,4.08204792 L45.4518833,4.08204792 Z M45.1947611,4.36857805 C45.1787986,4.34074683 45.1655922,4.31817505 45.1523859,4.30141057 C45.1409021,4.28530352 45.1264325,4.26974433 45.1139152,4.25758187 C45.1088623,4.25308942 45.1047281,4.24947356 45.1007088,4.24782998 C45.0969192,4.2461864 45.0915218,4.24432368 45.0834831,4.24432368 L45.0834831,4.43881354 L45.0067714,4.43881354 L45.0067714,3.98858321 L45.1507782,3.98858321 C45.1777651,3.98858321 45.2003881,3.99208951 45.2193364,3.99932124 C45.2385143,4.00600512 45.2544768,4.01466129 45.2669942,4.02671418 C45.2795115,4.03854793 45.2885837,4.05180611 45.295474,4.0673653 C45.3007565,4.08303406 45.3042017,4.10012726 45.3042017,4.11667259 C45.3042017,4.15173555 45.2927179,4.18186778 45.2727361,4.20498742 C45.2518356,4.22854535 45.2238151,4.24015996 45.1864928,4.24015996 C45.1912011,4.24235139 45.1977469,4.24684383 45.2021107,4.25308942 C45.2081971,4.2597733 45.21325,4.26623803 45.2200254,4.27434634 C45.2264564,4.28333123 45.2325428,4.29231611 45.2385143,4.30141057 C45.2471272,4.31105288 45.2525246,4.32113348 45.2595297,4.33011837 L45.3292363,4.43881354 L45.2355286,4.43881354 L45.1947611,4.36857805 L45.1947611,4.36857805 Z M45.2003881,4.06670787 C45.1864928,4.05465498 45.1615729,4.04895725 45.1264325,4.04895725 L45.0834831,4.04895725 L45.0834831,4.19172924 L45.1237912,4.19172924 C45.1460698,4.19172924 45.1608839,4.19052395 45.1723677,4.18789423 C45.183507,4.18471665 45.193383,4.17978592 45.2003881,4.1721159 C45.2142835,4.15896729 45.2214035,4.14110709 45.2214035,4.11919274 C45.2214035,4.09541567 45.2142835,4.07821291 45.2003881,4.06670787 Z M19.3722988,2.79797655 L16.617566,2.79797655 L16.617566,4.88323657 L18.8605809,4.88323657 L18.8605809,5.91562163 L16.617566,5.91562163 L16.617566,9.43188875 L15.2803929,9.43188875 L15.2803929,1.75485346 L19.5352539,1.75485346 L19.3722988,2.79797655 Z M20.0702839,2.17615685 C20.0702839,1.72198193 20.4421292,1.35601228 20.9183622,1.35601228 C21.3716276,1.35601228 21.7556457,1.71113433 21.7556457,2.17615685 C21.7556457,2.62057988 21.3716276,2.98622082 20.8947056,2.98622082 C20.4296119,2.98622082 20.0702839,2.62057988 20.0702839,2.17615685 Z M20.2556324,9.43188875 L20.2556324,3.90706183 L21.546411,3.68539817 L21.546411,9.43188875 L20.2556324,9.43188875 Z M25.5230196,4.88323657 C25.3946308,4.83940787 25.3012675,4.80587892 25.163462,4.80587892 C24.6279726,4.80587892 24.174133,5.18214832 24.0581467,5.63730938 L24.0581467,9.43188875 L22.7797706,9.43188875 L22.7797706,5.47076031 C22.7797706,4.7617215 22.6983505,4.30721787 22.5708804,3.96250514 L23.7450984,3.67455057 C23.8840524,3.92897618 23.9647834,4.25144585 23.9647834,4.5619722 C24.4298772,3.95154796 24.8953154,3.66381254 25.4649116,3.66381254 C25.6515233,3.66381254 25.7671651,3.68539817 25.9178325,3.75157951 L25.5230196,4.88323657 Z M27.1397083,6.95797771 L27.1397083,7.04596383 C27.1397083,7.82249884 27.4426509,8.64330084 28.5944755,8.64330084 C29.1400707,8.64330084 29.6163037,8.45505657 30.0580853,8.08930606 L30.5580897,8.83165469 C29.9415247,9.33097317 29.2329746,9.57498946 28.4420856,9.57498946 C26.7796914,9.57498946 25.7332879,8.43248479 25.7332879,6.63638462 C25.7332879,5.64815698 25.9540065,4.99423276 26.4657244,4.43979969 C26.9426464,3.91823815 27.524071,3.68539817 28.2673022,3.68539817 C28.8497603,3.68539817 29.3837568,3.8295946 29.8834167,4.26240302 C30.3951347,4.70583991 30.6508788,5.39373137 30.6508788,6.70245639 L30.6508788,6.95797771 L27.1397083,6.95797771 Z M28.2673022,4.60623918 C27.5473831,4.60623918 27.1518812,5.14894807 27.1518812,6.05872234 L29.3259933,6.05872234 C29.3259933,5.14894807 28.9071793,4.60623918 28.2673022,4.60623918 Z M34.2905529,2.37700187 C34.0002425,2.24354348 33.826263,2.17615685 33.5815434,2.17615685 C33.1399914,2.17615685 32.8604758,2.46564542 32.8604758,2.96430647 L32.8604758,3.81863742 L34.3953999,3.81863742 L34.0699492,4.66190163 L32.8716151,4.66190163 L32.8716151,9.43188875 L31.6051822,9.43188875 L31.6051822,4.66190163 L31.058898,4.66190163 L31.058898,3.81863742 L31.6284943,3.81863742 C31.6284943,3.81863742 31.593239,3.5080015 31.593239,2.98622082 C31.593239,1.82224009 32.3379632,1.27854505 33.3840221,1.27854505 C33.8842562,1.27854505 34.3023812,1.37825534 34.7090224,1.60013814 L34.2905529,2.37700187 Z M39.4112921,6.64756094 C39.4112921,8.45505657 38.3994549,9.57498946 36.807686,9.57498946 C35.2149984,9.57498946 34.2152192,8.43248479 34.2152192,6.63638462 C34.2152192,4.83940787 35.2264822,3.68539817 36.7850629,3.68539817 C38.4588261,3.68539817 39.4112921,4.87249854 39.4112921,6.64756094 Z M35.6334679,6.55836953 C35.6334679,8.18824935 36.0637657,8.66620134 36.8311129,8.66620134 C37.5868615,8.66620134 38.0048717,8.07823932 38.0048717,6.66892743 C38.0048717,5.08287631 37.5397779,4.60623918 36.7965467,4.60623918 C35.9823456,4.60623918 35.6334679,5.19343421 35.6334679,6.55836953 Z M43.2497507,9.43188875 C43.0408604,9.10865208 42.0870164,7.53355813 41.9713746,7.33490454 C41.7504263,7.75675579 40.9127983,9.11960925 40.6924243,9.43188875 L39.0767691,9.43188875 L41.2620205,6.39127261 L39.5641414,3.98507692 L40.9475942,3.71870799 C41.215626,4.1399018 41.7382535,5.01680454 42.0174246,5.53727037 C42.1796906,5.17151986 42.7731732,4.05114868 42.9479565,3.81863742 L44.4354525,3.81863742 L42.7035814,6.36990612 L44.853922,9.43188875 L43.2497507,9.43188875 Z M47.5002478,1.77194665 L48.4389333,1.77194665 L48.4389333,4.98667231 L51.8314761,4.98667231 L51.8314761,1.77194665 L52.7941627,1.77194665 L52.7941627,9.4553371 L51.8314761,9.4553371 L51.8314761,5.73723882 L48.4389333,5.73723882 L48.4389333,9.4553371 L47.5002478,9.4553371 L47.5002478,1.77194665 Z M57.9398217,8.32433747 L58.2916852,8.88424913 C57.7747996,9.33195931 57.0711874,9.57915319 56.3198027,9.57915319 C54.7000133,9.57915319 53.7259578,8.45856287 53.7259578,6.61063526 C53.7259578,5.66985219 53.9372597,5.06512568 54.4296848,4.50499488 C54.8992572,3.97861218 55.4740212,3.7318566 56.1788965,3.7318566 C56.8126872,3.7318566 57.3642539,3.94497365 57.7630861,4.33691181 C58.2683731,4.82976556 58.4093941,5.35592912 58.4323617,6.68865035 L58.4323617,6.81213771 L54.7818928,6.81213771 L54.7818928,6.94658225 C54.7818928,7.47296495 54.8525181,7.87640815 55.0516472,8.16764987 C55.3808876,8.64877943 55.9202814,8.85072017 56.5069885,8.85072017 C57.0711874,8.85072017 57.5284721,8.6826371 57.9398217,8.32433747 Z M54.7818928,6.15131047 L57.4578468,6.15131047 C57.4467075,5.54702225 57.3642539,5.17710802 57.188437,4.90778065 C56.9890783,4.60591047 56.5777287,4.41525562 56.1319278,4.41525562 C55.2983191,4.41525562 54.829206,4.99773906 54.7818928,6.15131047 Z M60.4641896,8.33496593 C60.4641896,8.77193808 60.5348149,8.89586373 60.7926261,8.89586373 C60.8275369,8.89586373 60.9098757,8.87296324 60.9098757,8.87296324 L61.0978654,9.44405121 C60.8632515,9.54507637 60.7578302,9.56731944 60.5111583,9.56731944 C60.2294608,9.56731944 59.9949617,9.48853735 59.8184558,9.33195931 C59.6309254,9.17549085 59.5365286,8.94002115 59.5365286,8.53690667 L59.5365286,2.62310003 C59.5365286,1.89488616 59.3964263,1.48048579 59.3964263,1.48048579 L60.3113403,1.31306015 C60.3113403,1.31306015 60.4641896,1.7830134 60.4641896,2.63416678 L60.4641896,8.33496593 Z M62.813889,8.33496593 C62.813889,8.77193808 62.8853182,8.89586373 63.1431294,8.89586373 C63.1779253,8.89586373 63.2603789,8.87296324 63.2603789,8.87296324 L63.4483687,9.44405121 C63.2134102,9.54507637 63.1076444,9.56731944 62.8616615,9.56731944 C62.5793899,9.56731944 62.3450056,9.48853735 62.1693035,9.33195931 C61.9807396,9.17549085 61.8870318,8.94002115 61.8870318,8.53690667 L61.8870318,2.62310003 C61.8870318,1.89488616 61.746585,1.48048579 61.746585,1.48048579 L62.6617287,1.31306015 C62.6617287,1.31306015 62.813889,1.7830134 62.813889,2.63416678 L62.813889,8.33496593 Z M66.4170446,3.70994225 C67.3915595,3.70994225 68.0252353,4.13540936 68.4248714,4.68392556 C68.7889077,5.1876269 68.9646098,5.84878286 68.9646098,6.75603697 C68.9646098,8.61557919 67.9201586,9.60084839 66.452874,9.60084839 C64.8446833,9.60084839 63.9287358,8.46941047 63.9287358,6.63320704 C63.9287358,4.8183701 64.8798237,3.70994225 66.4170446,3.70994225 Z M66.4055608,4.42654151 C65.8891345,4.42654151 65.4077338,4.66157292 65.2080306,5.03126801 C65.0203854,5.3785009 64.926448,5.82686851 64.926448,6.48736704 C64.926448,7.27135293 65.0673541,7.96570912 65.2908288,8.31283244 C65.5021306,8.64877943 65.9715882,8.87296324 66.4758416,8.87296324 C67.0863202,8.87296324 67.5439494,8.57043563 67.7437675,8.03276704 C67.8728453,7.6857533 67.9201586,7.37204937 67.9201586,6.82309489 C67.9201586,6.03943771 67.8379346,5.51272629 67.6501745,5.14346949 C67.4040768,4.6503966 66.8868467,4.42654151 66.4055608,4.42654151 L66.4055608,4.42654151 Z" id="Fill-1-Copy-2" fill="#5D5F64"></path>
                    <path d="M5.98805019,0.0433426803 C2.71585754,0.0433426803 0.0618375935,2.26775883 0.0618375935,5.01055895 C0.0618375935,6.37615171 0.719859068,7.61354551 1.78360303,8.51137645 C1.59882876,9.13286744 1.23295504,9.97624122 0.510050126,10.7995634 C0.633730602,11.008188 2.66957784,10.2723041 4.10470775,9.72181561 C4.69692708,9.88726895 5.32933969,9.97788479 5.98805019,9.97788479 C9.26127638,9.97788479 11.9150667,7.75379735 11.9150667,5.01055895 C11.9150667,2.26775883 9.26127638,0.0433426803 5.98805019,0.0433426803 L5.98805019,0.0433426803 Z M7.76091852,3.02172207 C8.19328341,3.02172207 8.54411336,3.35679249 8.54411336,3.76933014 C8.54411336,4.18307307 8.19328341,4.51748606 7.76091852,4.51748606 C7.32786459,4.51748606 6.97680497,4.18307307 6.97680497,3.76933014 C6.97680497,3.35679249 7.32786459,3.02172207 7.76091852,3.02172207 L7.76091852,3.02172207 Z M4.18509432,3.02172207 C4.61745921,3.02172207 4.96897819,3.35679249 4.96897819,3.76933014 C4.96897819,4.18307307 4.61745921,4.51748606 4.18509432,4.51748606 C3.75192556,4.51748606 3.40098077,4.18307307 3.40098077,3.76933014 C3.40098077,3.35679249 3.75192556,3.02172207 4.18509432,3.02172207 L4.18509432,3.02172207 Z M5.99620368,8.46754775 C5.98805019,8.46754775 5.98070056,8.46721904 5.97254707,8.46689032 C5.96439357,8.46721904 5.95669943,8.46754775 5.94854593,8.46754775 C4.36561958,8.46754775 2.59757445,7.48720928 2.19093325,5.83683954 C3.25973009,6.30843636 4.75400154,6.51454083 5.97254707,6.51454083 C7.19109259,6.51454083 8.68536404,6.30843636 9.75381636,5.83683954 C9.34751968,7.48720928 7.57913004,8.46754775 5.99620368,8.46754775 L5.99620368,8.46754775 Z" id="Fill-14-Copy" fill="#00A9DC"></path>
                </g>
            </g>
        </g>
    </g>
</svg>