<?xml version="1.0" encoding="UTF-8" standalone="no"?>
<svg width="282px" height="47px" viewBox="0 0 282 47" version="1.1" xmlns="http://www.w3.org/2000/svg" xmlns:xlink="http://www.w3.org/1999/xlink" xmlns:sketch="http://www.bohemiancoding.com/sketch/ns">
    <!-- Generator: Sketch 3.4.1 (15681) - http://www.bohemiancoding.com/sketch -->
    <title>Hello Logo</title>
    <desc>Created with Sketch.</desc>
    <defs></defs>
    <g id="Link-Clickers" stroke="none" stroke-width="1" fill="none" fill-rule="evenodd" sketch:type="MSPage">
        <g id="Non-Supported-Browser" sketch:type="MSArtboardGroup" transform="translate(-148.000000, -173.000000)">
            <g id="not-supported-A" sketch:type="MSLayerGroup">
                <g id="Hello-Logo" transform="translate(148.000000, 173.000000)" sketch:type="MSShapeGroup">
                    <path d="M186.063532,18.6835331 C185.973889,18.8899961 185.850922,19.0749234 185.695102,19.2303559 C185.540221,19.3862565 185.361872,19.5032991 185.153486,19.5955286 C184.942284,19.6797993 184.722634,19.7247436 184.493128,19.7247436 C184.258459,19.7247436 184.034585,19.6797993 183.83277,19.5955286 C183.621568,19.5032991 183.444628,19.3862565 183.289746,19.2303559 C183.132518,19.0749234 183.01096,18.8899961 182.924132,18.6835331 C182.830265,18.4751973 182.787086,18.2462621 182.787086,18.0065589 C182.787086,17.7626422 182.830265,17.5421341 182.924132,17.330053 C183.01096,17.1207809 183.132518,16.9372581 183.289746,16.7832301 C183.444628,16.628734 183.621568,16.5074779 183.83277,16.4194619 C184.034585,16.3295732 184.258459,16.2897787 184.493128,16.2897787 C184.722634,16.2897787 184.942284,16.3295732 185.153486,16.4194619 C185.361872,16.5074779 185.540221,16.628734 185.695102,16.7832301 C185.850922,16.9372581 185.973889,17.1207809 186.063532,17.330053 C186.156461,17.5421341 186.203395,17.7626422 186.203395,18.0065589 C186.203395,18.2462621 186.156461,18.4751973 186.063532,18.6835331 L186.063532,18.6835331 Z M185.759871,17.4414775 C185.68243,17.2663818 185.585746,17.1165673 185.459964,16.9859478 C185.34263,16.8557965 185.197604,16.7556081 185.026296,16.6797645 C184.857804,16.609539 184.680863,16.5720854 184.493128,16.5720854 C184.302108,16.5720854 184.119066,16.609539 183.957145,16.6797645 C183.791468,16.7556081 183.646443,16.8557965 183.522068,16.9859478 C183.394878,17.1165673 183.302418,17.2663818 183.227794,17.4414775 C183.154577,17.6179776 183.119846,17.8015004 183.119846,18.0065589 C183.119846,18.2078721 183.154577,18.3942039 183.227794,18.5664905 C183.302418,18.7453315 183.394878,18.8956142 183.522068,19.0276382 C183.646443,19.156385 183.791468,19.2621914 183.957145,19.3375668 C184.119066,19.4096651 184.302108,19.4494595 184.493128,19.4494595 C184.680863,19.4494595 184.857804,19.4096651 185.026296,19.3375668 C185.197604,19.2621914 185.34263,19.156385 185.459964,19.0276382 C185.585746,18.8956142 185.68243,18.7453315 185.759871,18.5664905 C185.827455,18.3942039 185.865002,18.2078721 185.865002,18.0065589 C185.865002,17.8015004 185.827455,17.6179776 185.759871,17.4414775 L185.759871,17.4414775 Z M184.709024,18.6657426 C184.643786,18.5468273 184.589812,18.4503843 184.535838,18.3787542 C184.488904,18.3099332 184.429768,18.243453 184.37861,18.1914862 C184.357959,18.1722912 184.341063,18.1568416 184.324636,18.149819 C184.309148,18.1427965 184.287089,18.1348376 184.254235,18.1348376 L184.254235,18.9658397 L183.940718,18.9658397 L183.940718,17.0421283 L184.529267,17.0421283 C184.639562,17.0421283 184.732021,17.0571097 184.809462,17.088009 C184.887841,17.1165673 184.953079,17.1535528 185.004237,17.2050515 C185.055395,17.2556139 185.092473,17.3122625 185.120633,17.3787427 C185.142222,17.445691 185.156302,17.5187256 185.156302,17.5894193 C185.156302,17.7392337 185.109369,17.8679805 185.027704,17.9667644 C184.942284,18.067421 184.827766,18.1170471 184.675231,18.1170471 C184.694474,18.1264105 184.721226,18.1456055 184.739061,18.1722912 C184.763936,18.2008496 184.784587,18.2284716 184.812278,18.2631162 C184.838561,18.3015062 184.863436,18.3398961 184.887841,18.3787542 C184.923042,18.4199532 184.9451,18.4630249 184.97373,18.5014148 L185.258618,18.9658397 L184.875638,18.9658397 L184.709024,18.6657426 L184.709024,18.6657426 Z M184.732021,17.3759336 C184.675231,17.3244349 184.573385,17.3000901 184.429768,17.3000901 L184.254235,17.3000901 L184.254235,17.9101159 L184.418973,17.9101159 C184.510024,17.9101159 184.570569,17.904966 184.617503,17.8937299 C184.663028,17.880153 184.703392,17.8590853 184.732021,17.8263134 C184.788811,17.770133 184.81791,17.6938212 184.81791,17.6001872 C184.81791,17.4985942 184.788811,17.4250915 184.732021,17.3759336 Z M79.1737431,11.9549907 L67.9152698,11.9549907 L67.9152698,20.8647381 L77.0823742,20.8647381 L77.0823742,25.2758379 L67.9152698,25.2758379 L67.9152698,40.2998883 L62.4503013,40.2998883 L62.4503013,7.49801024 L79.8397333,7.49801024 L79.1737431,11.9549907 Z M82.0263778,9.29812472 C82.0263778,7.35755917 83.5460933,5.79387065 85.4924369,5.79387065 C87.3449129,5.79387065 88.9143782,7.31121032 88.9143782,9.29812472 C88.9143782,11.1970231 87.3449129,12.7593071 85.3957533,12.7593071 C83.4949355,12.7593071 82.0263778,11.1970231 82.0263778,9.29812472 Z M82.7838889,40.2998883 L82.7838889,16.6938096 L88.0592449,15.7467013 L88.0592449,40.2998883 L82.7838889,40.2998883 Z M104.311472,20.8647381 C103.786752,20.67747 103.40518,20.5342099 102.841975,20.5342099 C100.653453,20.5342099 98.7986307,22.1419064 98.3245996,24.0866855 L98.3245996,40.2998883 L93.099932,40.2998883 L93.099932,23.3750668 C93.099932,20.3455373 92.7671716,18.4035673 92.2462067,16.9307038 L97.0451849,15.7003524 C97.6130836,16.7874437 97.943028,18.1652686 97.943028,19.492063 C99.8438458,16.8838867 101.746072,15.6544717 104.073987,15.6544717 C104.83666,15.6544717 105.309284,15.7467013 105.925055,16.0294761 L104.311472,20.8647381 Z M110.918808,29.7295411 L110.918808,30.1054818 C110.918808,33.4234042 112.156921,36.9304672 116.864378,36.9304672 C119.094202,36.9304672 121.040545,36.1261508 122.846088,34.5633986 L124.889584,37.7352518 C122.36971,39.8687035 119.473896,40.9113186 116.241567,40.9113186 C109.447434,40.9113186 105.170829,36.0297077 105.170829,28.3554616 C105.170829,24.1330344 106.072896,21.3389945 108.164265,18.9700532 C110.113424,16.741563 112.489681,15.7467013 115.527235,15.7467013 C117.907716,15.7467013 120.090136,16.3628133 122.132225,18.2120856 C124.223594,20.1067705 125.268809,23.0459431 125.268809,28.6377682 L125.268809,29.7295411 L110.918808,29.7295411 Z M115.527235,19.6812038 C112.584957,19.6812038 110.968558,22.0000509 110.968558,25.8872682 L119.85406,25.8872682 C119.85406,22.0000509 118.142385,19.6812038 115.527235,19.6812038 Z M140.143999,10.1562807 C138.957513,9.5860494 138.246466,9.29812472 137.246308,9.29812472 C135.441704,9.29812472 134.299336,10.5350304 134.299336,12.6656731 L134.299336,16.3159963 L140.572504,16.3159963 L139.242401,19.9190343 L134.344862,19.9190343 L134.344862,40.2998883 L129.169005,40.2998883 L129.169005,19.9190343 L126.936366,19.9190343 L126.936366,16.3159963 L129.264281,16.3159963 C129.264281,16.3159963 129.120194,14.9887337 129.120194,12.7593071 C129.120194,7.78593492 132.163849,5.4628743 136.439047,5.4628743 C138.483482,5.4628743 140.192341,5.8889092 141.854265,6.83695389 L140.143999,10.1562807 Z M161.072237,28.4032149 C161.072237,36.1261508 156.936902,40.9113186 150.431412,40.9113186 C143.922167,40.9113186 139.836113,36.0297077 139.836113,28.3554616 C139.836113,20.67747 143.969101,15.7467013 150.338953,15.7467013 C157.17955,15.7467013 161.072237,20.8188574 161.072237,28.4032149 Z M145.632434,28.0221244 C145.632434,34.9861563 147.391043,37.0283148 150.527157,37.0283148 C153.615869,37.0283148 155.324258,34.5161134 155.324258,28.4945081 C155.324258,21.7177442 153.42344,19.6812038 150.385887,19.6812038 C147.058282,19.6812038 145.632434,22.190128 145.632434,28.0221244 Z M176.759851,40.2998883 C175.906125,38.9187862 172.007806,32.1888393 171.535183,31.3400467 C170.632177,33.142502 167.208828,38.9656032 166.308169,40.2998883 L159.705056,40.2998883 L168.636084,27.3081648 L161.696926,17.0271468 L167.351037,15.889025 C168.446471,17.6886713 170.582427,21.4354376 171.723387,23.6592461 C172.386562,22.0964939 174.812099,17.3094535 175.526431,16.3159963 L181.605763,16.3159963 L174.52768,27.2168716 L183.316029,40.2998883 L176.759851,40.2998883 Z M194.131448,7.57104479 L197.967814,7.57104479 L197.967814,21.3066908 L211.832989,21.3066908 L211.832989,7.57104479 L215.767447,7.57104479 L215.767447,40.4000767 L211.832989,40.4000767 L211.832989,24.5136568 L197.967814,24.5136568 L197.967814,40.4000767 L194.131448,40.4000767 L194.131448,7.57104479 Z M236.797532,35.5676237 L238.235583,37.9599736 C236.123094,39.8729171 233.247462,40.9291091 230.176585,40.9291091 C223.556576,40.9291091 219.575654,36.1411323 219.575654,28.2454416 C219.575654,24.2257321 220.439235,21.6419007 222.451755,19.2486145 C224.370877,16.9995248 226.719913,15.9452055 229.600707,15.9452055 C232.190982,15.9452055 234.445211,16.8557965 236.075221,18.5304414 C238.140307,20.636271 238.716654,22.8844244 238.810522,28.5787787 L238.810522,29.1064066 L223.891214,29.1064066 L223.891214,29.6808514 C223.891214,31.9299412 224.179857,33.6537439 224.993688,34.8981403 C226.33928,36.9538758 228.543759,37.8167135 230.941605,37.8167135 C233.247462,37.8167135 235.116364,37.0985404 236.797532,35.5676237 Z M223.891214,26.282872 L234.827722,26.282872 C234.782196,23.7009133 234.445211,22.1203706 233.726655,20.9696082 C232.911885,19.6797993 231.230717,18.8651831 229.408748,18.8651831 C226.001826,18.8651831 224.084581,21.353976 223.891214,26.282872 Z M247.114514,35.6130363 C247.114514,37.4800991 247.403157,38.0095996 248.45682,38.0095996 C248.599499,38.0095996 248.936014,37.911752 248.936014,37.911752 L249.70432,40.3518552 C248.745463,40.7835081 248.314611,40.8785467 247.306473,40.8785467 C246.155188,40.8785467 245.1968,40.5419323 244.475428,39.8729171 C243.708999,39.20437 243.323204,38.1982722 243.323204,36.475874 L243.323204,11.207791 C243.323204,8.09633177 242.750612,6.32571201 242.750612,6.32571201 L246.489825,5.61034792 C246.489825,5.61034792 247.114514,7.61832998 247.114514,11.2550762 L247.114514,35.6130363 Z M256.717633,35.6130363 C256.717633,37.4800991 257.009561,38.0095996 258.063224,38.0095996 C258.205434,38.0095996 258.542418,37.911752 258.542418,37.911752 L259.310724,40.3518552 C258.350459,40.7835081 257.918199,40.8785467 256.912878,40.8785467 C255.759245,40.8785467 254.801327,40.5419323 254.08324,39.8729171 C253.312588,39.20437 252.929608,38.1982722 252.929608,36.475874 L252.929608,11.207791 C252.929608,8.09633177 252.355608,6.32571201 252.355608,6.32571201 L256.095761,5.61034792 C256.095761,5.61034792 256.717633,7.61832998 256.717633,11.2550762 L256.717633,35.6130363 Z M271.443574,15.8515714 C275.426373,15.8515714 278.016179,17.6694764 279.649474,20.0131365 C281.137275,22.165315 281.855362,24.990254 281.855362,28.8667034 C281.855362,36.8120202 277.586735,41.0218068 271.590007,41.0218068 C265.017401,41.0218068 261.273964,36.1874811 261.273964,28.3418846 C261.273964,20.5875813 265.161019,15.8515714 271.443574,15.8515714 Z M271.39664,18.9134046 C269.286028,18.9134046 267.318564,19.9176297 266.502386,21.4972361 C265.735488,22.9808675 265.35157,24.89662 265.35157,27.7187501 C265.35157,31.068508 265.927447,34.0353026 266.840778,35.5184659 C267.70436,36.9538758 269.623013,37.911752 271.683874,37.911752 C274.178874,37.911752 276.049185,36.6191341 276.865832,34.3218228 C277.393368,32.8391277 277.586735,31.4987564 277.586735,29.1532236 C277.586735,25.8048702 277.250689,23.554376 276.483322,21.9766424 C275.477531,19.8698764 273.363634,18.9134046 271.39664,18.9134046 L271.39664,18.9134046 Z" id="Fill-1-Copy-2" fill="#5D5F64"></path>
                    <path d="M24.4729008,0.185191452 C11.0995917,0.185191452 0.252727556,9.68951502 0.252727556,21.4087519 C0.252727556,27.2435573 2.94203271,32.5306035 7.28950804,36.3667903 C6.53434365,39.0222518 5.03903366,42.6257579 2.08455269,46.1435889 C2.59002942,47.034985 10.9104486,43.8907539 16.7757621,41.5386667 C19.1961367,42.2456037 21.7807796,42.6327805 24.4729008,42.6327805 C37.8504339,42.6327805 48.6963594,33.1298614 48.6963594,21.4087519 C48.6963594,9.68951502 37.8504339,0.185191452 24.4729008,0.185191452 L24.4729008,0.185191452 Z M31.7185365,12.9109943 C33.4855931,12.9109943 34.9194198,14.3426588 34.9194198,16.1053197 C34.9194198,17.8731304 33.4855931,19.3019859 31.7185365,19.3019859 C29.948664,19.3019859 28.5138986,17.8731304 28.5138986,16.1053197 C28.5138986,14.3426588 29.948664,12.9109943 31.7185365,12.9109943 L31.7185365,12.9109943 Z M17.1042985,12.9109943 C18.871355,12.9109943 20.3079978,14.3426588 20.3079978,16.1053197 C20.3079978,17.8731304 18.871355,19.3019859 17.1042985,19.3019859 C15.3339566,19.3019859 13.8996605,17.8731304 13.8996605,16.1053197 C13.8996605,14.3426588 15.3339566,12.9109943 17.1042985,12.9109943 L17.1042985,12.9109943 Z M24.5062238,36.1795222 C24.4729008,36.1795222 24.4428632,36.1781177 24.4095402,36.1767132 C24.3762172,36.1781177 24.3447716,36.1795222 24.3114486,36.1795222 C17.8420974,36.1795222 10.6161738,31.9908033 8.95424895,24.9392235 C13.3223751,26.9542281 19.4293976,27.8348563 24.4095402,27.8348563 C29.3896828,27.8348563 35.4967052,26.9542281 39.8634234,24.9392235 C38.2029065,31.9908033 30.9755749,36.1795222 24.5062238,36.1795222 L24.5062238,36.1795222 Z" id="Fill-14-Copy" fill="#00A9DC"></path>
                </g>
            </g>
        </g>
    </g>
</svg>