<svg width="60" height="59" viewBox="0 0 60 59" xmlns="http://www.w3.org/2000/svg"><path d="M30 .5c-16.568 0-30 12.118-30 27.067 0 7.818 3.697 14.844 9.574 19.782-.296 1.036-.697 2.165-1.271 3.368-2.692 5.661-4.553 7.784-4.553 7.784s6.761-1.315 12.521-4.269c1.031-.53 1.868-1.04 2.625-1.535 3.435 1.237 7.178 1.937 11.104 1.937 16.568 0 30-12.118 30-27.067s-13.432-27.067-30-27.067zm9 16c2.21 0 4 1.792 4 3.998 0 2.206-1.79 4.002-4 4.002s-4-1.792-4-4.002 1.79-3.998 4-3.998zm-18 0c2.21 0 4 1.792 4 3.998 0 2.206-1.79 4.002-4 4.002s-4-1.792-4-4.002 1.79-3.998 4-3.998zm-2.216 23.946c-.283-.778.115-1.638.888-1.92l21.629-7.872c.774-.282 1.629.116 1.914.899.283.778-.115 1.638-.888 1.92l-21.629 7.872c-.774.282-1.629-.116-1.914-.899z" fill="#9B9B9B"/></svg>
