<?xml version="1.0" encoding="UTF-8" standalone="no"?>
<svg width="60px" height="58px" viewBox="0 0 60 58" version="1.1" xmlns="http://www.w3.org/2000/svg" xmlns:xlink="http://www.w3.org/1999/xlink" xmlns:sketch="http://www.bohemiancoding.com/sketch/ns">
    <!-- Generator: Sketch 3.4.4 (17249) - http://www.bohemiancoding.com/sketch -->
    <title>Imported Layers Copy 30</title>
    <desc>Created with Sketch.</desc>
    <defs></defs>
    <g id="Error-Screens" stroke="none" stroke-width="1" fill="none" fill-rule="evenodd" sketch:type="MSPage">
        <g id="Non-Supported-Browser-Copy" sketch:type="MSArtboardGroup" transform="translate(-149.000000, -183.000000)" fill="#9B9B9B">
            <path d="M178.997965,183 C162.434415,183 149,194.954264 149,209.694383 C149,217.033233 152.330847,223.683127 157.715425,228.508172 C156.780114,231.848135 154.928093,236.380521 151.268812,240.805148 C151.894872,241.92632 162.200151,237.971597 169.464652,235.013209 C172.462414,235.902374 175.663631,236.389354 178.997965,236.389354 C195.566748,236.389354 209,224.436857 209,209.694383 C209,194.954264 195.566748,183 178.997965,183 L178.997965,183 Z M187.972069,199.006148 C190.160662,199.006148 191.936532,200.806854 191.936532,203.023878 C191.936532,205.24738 190.160662,207.044553 187.972069,207.044553 C185.779988,207.044553 184.002955,205.24738 184.002955,203.023878 C184.002955,200.806854 185.779988,199.006148 187.972069,199.006148 L187.972069,199.006148 Z M169.871562,199.006148 C172.060155,199.006148 173.839513,200.806854 173.839513,203.023878 C173.839513,205.24738 172.060155,207.044553 169.871562,207.044553 C167.6789,207.044553 165.902448,205.24738 165.902448,203.023878 C165.902448,200.806854 167.6789,199.006148 169.871562,199.006148 Z M189.987249,213.414399 L168.414216,221.592632 C167.716975,221.856953 167.363709,222.642625 167.625174,223.34748 C167.886639,224.052335 168.663824,224.409459 169.361065,224.145138 L190.934099,215.966905 C191.63134,215.702585 191.984606,214.916913 191.72314,214.212058 C191.461675,213.507202 190.68449,213.150079 189.987249,213.414399 Z" id="Imported-Layers-Copy-30" sketch:type="MSShapeGroup"></path>
        </g>
    </g>
</svg>